<mxfile host="app.diagrams.net" agent="Mozilla/5.0 (Windows NT 10.0; Win64; x64) AppleWebKit/537.36 (KHTML, like Gecko) Chrome/136.0.0.0 YaBrowser/25.6.0.0 Safari/537.36" version="27.2.0">
  <diagram name="Страница — 1" id="z8NinTKLLGZ_lCfTPIbe">
    <mxGraphModel dx="784" dy="1192" grid="1" gridSize="10" guides="1" tooltips="1" connect="1" arrows="1" fold="1" page="1" pageScale="1" pageWidth="1169" pageHeight="1654" math="0" shadow="0">
      <root>
        <mxCell id="0" />
        <mxCell id="1" parent="0" />
        <mxCell id="wTen16TL0sHBwGDb7RQF-36" value="ORGANIZATIONS" style="shape=table;startSize=30;container=1;collapsible=0;childLayout=tableLayout;fixedRows=1;rowLines=0;fontStyle=0;strokeColor=default;fontSize=16;rounded=1;sketch=1;curveFitting=1;jiggle=2;shadow=0;miterlimit=4;" vertex="1" parent="1">
          <mxGeometry x="50" y="140" width="270" height="150" as="geometry" />
        </mxCell>
        <mxCell id="wTen16TL0sHBwGDb7RQF-37" value="" style="shape=tableRow;horizontal=0;startSize=0;swimlaneHead=0;swimlaneBody=0;top=0;left=0;bottom=0;right=0;collapsible=0;dropTarget=0;fillColor=none;points=[[0,0.5],[1,0.5]];portConstraint=eastwest;strokeColor=inherit;fontSize=16;" vertex="1" parent="wTen16TL0sHBwGDb7RQF-36">
          <mxGeometry y="30" width="270" height="30" as="geometry" />
        </mxCell>
        <mxCell id="wTen16TL0sHBwGDb7RQF-38" value="int" style="shape=partialRectangle;html=1;whiteSpace=wrap;connectable=0;fillColor=none;top=1;left=0;bottom=0;right=0;overflow=hidden;pointerEvents=1;strokeColor=inherit;fontSize=16;" vertex="1" parent="wTen16TL0sHBwGDb7RQF-37">
          <mxGeometry width="90" height="30" as="geometry">
            <mxRectangle width="90" height="30" as="alternateBounds" />
          </mxGeometry>
        </mxCell>
        <mxCell id="wTen16TL0sHBwGDb7RQF-39" value="id" style="shape=partialRectangle;html=1;whiteSpace=wrap;connectable=0;fillColor=#fff2cc;top=1;left=0;bottom=0;right=0;align=left;spacingLeft=6;overflow=hidden;strokeColor=#d6b656;fontSize=16;" vertex="1" parent="wTen16TL0sHBwGDb7RQF-37">
          <mxGeometry x="90" width="180" height="30" as="geometry">
            <mxRectangle width="180" height="30" as="alternateBounds" />
          </mxGeometry>
        </mxCell>
        <mxCell id="wTen16TL0sHBwGDb7RQF-40" value="" style="shape=tableRow;horizontal=0;startSize=0;swimlaneHead=0;swimlaneBody=0;top=0;left=0;bottom=0;right=0;collapsible=0;dropTarget=0;fillColor=none;points=[[0,0.5],[1,0.5]];portConstraint=eastwest;strokeColor=inherit;fontSize=16;" vertex="1" parent="wTen16TL0sHBwGDb7RQF-36">
          <mxGeometry y="60" width="270" height="30" as="geometry" />
        </mxCell>
        <mxCell id="wTen16TL0sHBwGDb7RQF-41" value="string" style="shape=partialRectangle;html=1;whiteSpace=wrap;connectable=0;fillColor=none;top=1;left=0;bottom=0;right=0;overflow=hidden;strokeColor=inherit;fontSize=16;" vertex="1" parent="wTen16TL0sHBwGDb7RQF-40">
          <mxGeometry width="90" height="30" as="geometry">
            <mxRectangle width="90" height="30" as="alternateBounds" />
          </mxGeometry>
        </mxCell>
        <mxCell id="wTen16TL0sHBwGDb7RQF-42" value="name" style="shape=partialRectangle;html=1;whiteSpace=wrap;connectable=0;fillColor=none;top=1;left=0;bottom=0;right=0;align=left;spacingLeft=6;overflow=hidden;strokeColor=inherit;fontSize=16;" vertex="1" parent="wTen16TL0sHBwGDb7RQF-40">
          <mxGeometry x="90" width="180" height="30" as="geometry">
            <mxRectangle width="180" height="30" as="alternateBounds" />
          </mxGeometry>
        </mxCell>
        <mxCell id="wTen16TL0sHBwGDb7RQF-43" value="" style="shape=tableRow;horizontal=0;startSize=0;swimlaneHead=0;swimlaneBody=0;top=0;left=0;bottom=0;right=0;collapsible=0;dropTarget=0;fillColor=none;points=[[0,0.5],[1,0.5]];portConstraint=eastwest;strokeColor=inherit;fontSize=16;" vertex="1" parent="wTen16TL0sHBwGDb7RQF-36">
          <mxGeometry y="90" width="270" height="30" as="geometry" />
        </mxCell>
        <mxCell id="wTen16TL0sHBwGDb7RQF-44" value="text" style="shape=partialRectangle;html=1;whiteSpace=wrap;connectable=0;fillColor=none;top=1;left=0;bottom=0;right=0;overflow=hidden;strokeColor=inherit;fontSize=16;" vertex="1" parent="wTen16TL0sHBwGDb7RQF-43">
          <mxGeometry width="90" height="30" as="geometry">
            <mxRectangle width="90" height="30" as="alternateBounds" />
          </mxGeometry>
        </mxCell>
        <mxCell id="wTen16TL0sHBwGDb7RQF-45" value="comment" style="shape=partialRectangle;html=1;whiteSpace=wrap;connectable=0;fillColor=none;top=1;left=0;bottom=0;right=0;align=left;spacingLeft=6;overflow=hidden;strokeColor=inherit;fontSize=16;" vertex="1" parent="wTen16TL0sHBwGDb7RQF-43">
          <mxGeometry x="90" width="180" height="30" as="geometry">
            <mxRectangle width="180" height="30" as="alternateBounds" />
          </mxGeometry>
        </mxCell>
        <mxCell id="wTen16TL0sHBwGDb7RQF-179" style="shape=tableRow;horizontal=0;startSize=0;swimlaneHead=0;swimlaneBody=0;top=0;left=0;bottom=0;right=0;collapsible=0;dropTarget=0;fillColor=none;points=[[0,0.5],[1,0.5]];portConstraint=eastwest;strokeColor=inherit;fontSize=16;" vertex="1" parent="wTen16TL0sHBwGDb7RQF-36">
          <mxGeometry y="120" width="270" height="30" as="geometry" />
        </mxCell>
        <mxCell id="wTen16TL0sHBwGDb7RQF-180" value="timestamp" style="shape=partialRectangle;html=1;whiteSpace=wrap;connectable=0;fillColor=none;top=1;left=0;bottom=0;right=0;overflow=hidden;strokeColor=inherit;fontSize=16;" vertex="1" parent="wTen16TL0sHBwGDb7RQF-179">
          <mxGeometry width="90" height="30" as="geometry">
            <mxRectangle width="90" height="30" as="alternateBounds" />
          </mxGeometry>
        </mxCell>
        <mxCell id="wTen16TL0sHBwGDb7RQF-181" value="deleted_at" style="shape=partialRectangle;html=1;whiteSpace=wrap;connectable=0;fillColor=none;top=1;left=0;bottom=0;right=0;align=left;spacingLeft=6;overflow=hidden;strokeColor=inherit;fontSize=16;" vertex="1" parent="wTen16TL0sHBwGDb7RQF-179">
          <mxGeometry x="90" width="180" height="30" as="geometry">
            <mxRectangle width="180" height="30" as="alternateBounds" />
          </mxGeometry>
        </mxCell>
        <mxCell id="wTen16TL0sHBwGDb7RQF-81" value="DEPARTMENTS" style="shape=table;startSize=30;container=1;collapsible=0;childLayout=tableLayout;fixedRows=1;rowLines=0;fontStyle=0;strokeColor=default;fontSize=16;rounded=1;sketch=1;curveFitting=1;jiggle=2;shadow=0;miterlimit=4;" vertex="1" parent="1">
          <mxGeometry x="50" y="350" width="270" height="210" as="geometry" />
        </mxCell>
        <mxCell id="wTen16TL0sHBwGDb7RQF-82" value="" style="shape=tableRow;horizontal=0;startSize=0;swimlaneHead=0;swimlaneBody=0;top=0;left=0;bottom=0;right=0;collapsible=0;dropTarget=0;fillColor=none;points=[[0,0.5],[1,0.5]];portConstraint=eastwest;strokeColor=inherit;fontSize=16;" vertex="1" parent="wTen16TL0sHBwGDb7RQF-81">
          <mxGeometry y="30" width="270" height="30" as="geometry" />
        </mxCell>
        <mxCell id="wTen16TL0sHBwGDb7RQF-83" value="int" style="shape=partialRectangle;html=1;whiteSpace=wrap;connectable=0;fillColor=none;top=1;left=0;bottom=0;right=0;overflow=hidden;pointerEvents=1;strokeColor=inherit;fontSize=16;" vertex="1" parent="wTen16TL0sHBwGDb7RQF-82">
          <mxGeometry width="90" height="30" as="geometry">
            <mxRectangle width="90" height="30" as="alternateBounds" />
          </mxGeometry>
        </mxCell>
        <mxCell id="wTen16TL0sHBwGDb7RQF-84" value="id" style="shape=partialRectangle;html=1;whiteSpace=wrap;connectable=0;fillColor=#fff2cc;top=1;left=0;bottom=0;right=0;align=left;spacingLeft=6;overflow=hidden;strokeColor=#d6b656;fontSize=16;" vertex="1" parent="wTen16TL0sHBwGDb7RQF-82">
          <mxGeometry x="90" width="180" height="30" as="geometry">
            <mxRectangle width="180" height="30" as="alternateBounds" />
          </mxGeometry>
        </mxCell>
        <mxCell id="wTen16TL0sHBwGDb7RQF-85" value="" style="shape=tableRow;horizontal=0;startSize=0;swimlaneHead=0;swimlaneBody=0;top=0;left=0;bottom=0;right=0;collapsible=0;dropTarget=0;fillColor=none;points=[[0,0.5],[1,0.5]];portConstraint=eastwest;strokeColor=inherit;fontSize=16;" vertex="1" parent="wTen16TL0sHBwGDb7RQF-81">
          <mxGeometry y="60" width="270" height="30" as="geometry" />
        </mxCell>
        <mxCell id="wTen16TL0sHBwGDb7RQF-86" value="int" style="shape=partialRectangle;html=1;whiteSpace=wrap;connectable=0;fillColor=none;top=1;left=0;bottom=0;right=0;overflow=hidden;strokeColor=inherit;fontSize=16;" vertex="1" parent="wTen16TL0sHBwGDb7RQF-85">
          <mxGeometry width="90" height="30" as="geometry">
            <mxRectangle width="90" height="30" as="alternateBounds" />
          </mxGeometry>
        </mxCell>
        <mxCell id="wTen16TL0sHBwGDb7RQF-87" value="organization_id" style="shape=partialRectangle;html=1;whiteSpace=wrap;connectable=0;fillColor=#e1d5e7;top=1;left=0;bottom=0;right=0;align=left;spacingLeft=6;overflow=hidden;strokeColor=#9673a6;fontSize=16;" vertex="1" parent="wTen16TL0sHBwGDb7RQF-85">
          <mxGeometry x="90" width="180" height="30" as="geometry">
            <mxRectangle width="180" height="30" as="alternateBounds" />
          </mxGeometry>
        </mxCell>
        <mxCell id="wTen16TL0sHBwGDb7RQF-88" value="" style="shape=tableRow;horizontal=0;startSize=0;swimlaneHead=0;swimlaneBody=0;top=0;left=0;bottom=0;right=0;collapsible=0;dropTarget=0;fillColor=none;points=[[0,0.5],[1,0.5]];portConstraint=eastwest;strokeColor=inherit;fontSize=16;" vertex="1" parent="wTen16TL0sHBwGDb7RQF-81">
          <mxGeometry y="90" width="270" height="30" as="geometry" />
        </mxCell>
        <mxCell id="wTen16TL0sHBwGDb7RQF-89" value="int" style="shape=partialRectangle;html=1;whiteSpace=wrap;connectable=0;fillColor=none;top=1;left=0;bottom=0;right=0;overflow=hidden;strokeColor=inherit;fontSize=16;" vertex="1" parent="wTen16TL0sHBwGDb7RQF-88">
          <mxGeometry width="90" height="30" as="geometry">
            <mxRectangle width="90" height="30" as="alternateBounds" />
          </mxGeometry>
        </mxCell>
        <mxCell id="wTen16TL0sHBwGDb7RQF-90" value="parent_id" style="shape=partialRectangle;html=1;whiteSpace=wrap;connectable=0;fillColor=#e1d5e7;top=1;left=0;bottom=0;right=0;align=left;spacingLeft=6;overflow=hidden;strokeColor=#9673a6;fontSize=16;" vertex="1" parent="wTen16TL0sHBwGDb7RQF-88">
          <mxGeometry x="90" width="180" height="30" as="geometry">
            <mxRectangle width="180" height="30" as="alternateBounds" />
          </mxGeometry>
        </mxCell>
        <mxCell id="wTen16TL0sHBwGDb7RQF-101" style="shape=tableRow;horizontal=0;startSize=0;swimlaneHead=0;swimlaneBody=0;top=0;left=0;bottom=0;right=0;collapsible=0;dropTarget=0;fillColor=none;points=[[0,0.5],[1,0.5]];portConstraint=eastwest;strokeColor=inherit;fontSize=16;" vertex="1" parent="wTen16TL0sHBwGDb7RQF-81">
          <mxGeometry y="120" width="270" height="30" as="geometry" />
        </mxCell>
        <mxCell id="wTen16TL0sHBwGDb7RQF-102" value="string" style="shape=partialRectangle;html=1;whiteSpace=wrap;connectable=0;fillColor=none;top=1;left=0;bottom=0;right=0;overflow=hidden;strokeColor=inherit;fontSize=16;" vertex="1" parent="wTen16TL0sHBwGDb7RQF-101">
          <mxGeometry width="90" height="30" as="geometry">
            <mxRectangle width="90" height="30" as="alternateBounds" />
          </mxGeometry>
        </mxCell>
        <mxCell id="wTen16TL0sHBwGDb7RQF-103" value="name" style="shape=partialRectangle;html=1;whiteSpace=wrap;connectable=0;fillColor=none;top=1;left=0;bottom=0;right=0;align=left;spacingLeft=6;overflow=hidden;strokeColor=inherit;fontSize=16;" vertex="1" parent="wTen16TL0sHBwGDb7RQF-101">
          <mxGeometry x="90" width="180" height="30" as="geometry">
            <mxRectangle width="180" height="30" as="alternateBounds" />
          </mxGeometry>
        </mxCell>
        <mxCell id="wTen16TL0sHBwGDb7RQF-104" style="shape=tableRow;horizontal=0;startSize=0;swimlaneHead=0;swimlaneBody=0;top=0;left=0;bottom=0;right=0;collapsible=0;dropTarget=0;fillColor=none;points=[[0,0.5],[1,0.5]];portConstraint=eastwest;strokeColor=inherit;fontSize=16;" vertex="1" parent="wTen16TL0sHBwGDb7RQF-81">
          <mxGeometry y="150" width="270" height="30" as="geometry" />
        </mxCell>
        <mxCell id="wTen16TL0sHBwGDb7RQF-105" value="text" style="shape=partialRectangle;html=1;whiteSpace=wrap;connectable=0;fillColor=none;top=1;left=0;bottom=0;right=0;overflow=hidden;strokeColor=inherit;fontSize=16;" vertex="1" parent="wTen16TL0sHBwGDb7RQF-104">
          <mxGeometry width="90" height="30" as="geometry">
            <mxRectangle width="90" height="30" as="alternateBounds" />
          </mxGeometry>
        </mxCell>
        <mxCell id="wTen16TL0sHBwGDb7RQF-106" value="comment" style="shape=partialRectangle;html=1;whiteSpace=wrap;connectable=0;fillColor=none;top=1;left=0;bottom=0;right=0;align=left;spacingLeft=6;overflow=hidden;strokeColor=inherit;fontSize=16;" vertex="1" parent="wTen16TL0sHBwGDb7RQF-104">
          <mxGeometry x="90" width="180" height="30" as="geometry">
            <mxRectangle width="180" height="30" as="alternateBounds" />
          </mxGeometry>
        </mxCell>
        <mxCell id="wTen16TL0sHBwGDb7RQF-184" style="shape=tableRow;horizontal=0;startSize=0;swimlaneHead=0;swimlaneBody=0;top=0;left=0;bottom=0;right=0;collapsible=0;dropTarget=0;fillColor=none;points=[[0,0.5],[1,0.5]];portConstraint=eastwest;strokeColor=inherit;fontSize=16;" vertex="1" parent="wTen16TL0sHBwGDb7RQF-81">
          <mxGeometry y="180" width="270" height="30" as="geometry" />
        </mxCell>
        <mxCell id="wTen16TL0sHBwGDb7RQF-185" value="timestamp" style="shape=partialRectangle;html=1;whiteSpace=wrap;connectable=0;fillColor=none;top=1;left=0;bottom=0;right=0;overflow=hidden;strokeColor=inherit;fontSize=16;" vertex="1" parent="wTen16TL0sHBwGDb7RQF-184">
          <mxGeometry width="90" height="30" as="geometry">
            <mxRectangle width="90" height="30" as="alternateBounds" />
          </mxGeometry>
        </mxCell>
        <mxCell id="wTen16TL0sHBwGDb7RQF-186" value="deleted_at" style="shape=partialRectangle;html=1;whiteSpace=wrap;connectable=0;fillColor=none;top=1;left=0;bottom=0;right=0;align=left;spacingLeft=6;overflow=hidden;strokeColor=inherit;fontSize=16;" vertex="1" parent="wTen16TL0sHBwGDb7RQF-184">
          <mxGeometry x="90" width="180" height="30" as="geometry">
            <mxRectangle width="180" height="30" as="alternateBounds" />
          </mxGeometry>
        </mxCell>
        <mxCell id="wTen16TL0sHBwGDb7RQF-174" style="edgeStyle=orthogonalEdgeStyle;rounded=0;orthogonalLoop=1;jettySize=auto;html=1;entryX=1;entryY=0.5;entryDx=0;entryDy=0;startArrow=ERmandOne;startFill=0;endArrow=ERzeroToMany;endFill=0;strokeWidth=2;" edge="1" parent="wTen16TL0sHBwGDb7RQF-81" source="wTen16TL0sHBwGDb7RQF-88" target="wTen16TL0sHBwGDb7RQF-82">
          <mxGeometry relative="1" as="geometry">
            <mxPoint x="310" y="40" as="targetPoint" />
            <Array as="points">
              <mxPoint x="320" y="105" />
              <mxPoint x="320" y="44" />
              <mxPoint x="270" y="44" />
            </Array>
          </mxGeometry>
        </mxCell>
        <mxCell id="wTen16TL0sHBwGDb7RQF-107" value="PERSONNEL_OPERATIONS" style="shape=table;startSize=30;container=1;collapsible=0;childLayout=tableLayout;fixedRows=1;rowLines=0;fontStyle=0;strokeColor=default;fontSize=16;rounded=1;sketch=1;curveFitting=1;jiggle=2;shadow=0;miterlimit=4;" vertex="1" parent="1">
          <mxGeometry x="50" y="610" width="270" height="240" as="geometry" />
        </mxCell>
        <mxCell id="wTen16TL0sHBwGDb7RQF-108" value="" style="shape=tableRow;horizontal=0;startSize=0;swimlaneHead=0;swimlaneBody=0;top=0;left=0;bottom=0;right=0;collapsible=0;dropTarget=0;fillColor=none;points=[[0,0.5],[1,0.5]];portConstraint=eastwest;strokeColor=inherit;fontSize=16;" vertex="1" parent="wTen16TL0sHBwGDb7RQF-107">
          <mxGeometry y="30" width="270" height="30" as="geometry" />
        </mxCell>
        <mxCell id="wTen16TL0sHBwGDb7RQF-109" value="int" style="shape=partialRectangle;html=1;whiteSpace=wrap;connectable=0;fillColor=none;top=1;left=0;bottom=0;right=0;overflow=hidden;pointerEvents=1;strokeColor=inherit;fontSize=16;" vertex="1" parent="wTen16TL0sHBwGDb7RQF-108">
          <mxGeometry width="90" height="30" as="geometry">
            <mxRectangle width="90" height="30" as="alternateBounds" />
          </mxGeometry>
        </mxCell>
        <mxCell id="wTen16TL0sHBwGDb7RQF-110" value="id" style="shape=partialRectangle;html=1;whiteSpace=wrap;connectable=0;fillColor=#fff2cc;top=1;left=0;bottom=0;right=0;align=left;spacingLeft=6;overflow=hidden;strokeColor=#d6b656;fontSize=16;" vertex="1" parent="wTen16TL0sHBwGDb7RQF-108">
          <mxGeometry x="90" width="180" height="30" as="geometry">
            <mxRectangle width="180" height="30" as="alternateBounds" />
          </mxGeometry>
        </mxCell>
        <mxCell id="wTen16TL0sHBwGDb7RQF-111" value="" style="shape=tableRow;horizontal=0;startSize=0;swimlaneHead=0;swimlaneBody=0;top=0;left=0;bottom=0;right=0;collapsible=0;dropTarget=0;fillColor=none;points=[[0,0.5],[1,0.5]];portConstraint=eastwest;strokeColor=inherit;fontSize=16;" vertex="1" parent="wTen16TL0sHBwGDb7RQF-107">
          <mxGeometry y="60" width="270" height="30" as="geometry" />
        </mxCell>
        <mxCell id="wTen16TL0sHBwGDb7RQF-112" value="int" style="shape=partialRectangle;html=1;whiteSpace=wrap;connectable=0;fillColor=none;top=1;left=0;bottom=0;right=0;overflow=hidden;strokeColor=inherit;fontSize=16;" vertex="1" parent="wTen16TL0sHBwGDb7RQF-111">
          <mxGeometry width="90" height="30" as="geometry">
            <mxRectangle width="90" height="30" as="alternateBounds" />
          </mxGeometry>
        </mxCell>
        <mxCell id="wTen16TL0sHBwGDb7RQF-113" value="employee_id" style="shape=partialRectangle;html=1;whiteSpace=wrap;connectable=0;fillColor=#e1d5e7;top=1;left=0;bottom=0;right=0;align=left;spacingLeft=6;overflow=hidden;strokeColor=#9673a6;fontSize=16;" vertex="1" parent="wTen16TL0sHBwGDb7RQF-111">
          <mxGeometry x="90" width="180" height="30" as="geometry">
            <mxRectangle width="180" height="30" as="alternateBounds" />
          </mxGeometry>
        </mxCell>
        <mxCell id="wTen16TL0sHBwGDb7RQF-114" value="" style="shape=tableRow;horizontal=0;startSize=0;swimlaneHead=0;swimlaneBody=0;top=0;left=0;bottom=0;right=0;collapsible=0;dropTarget=0;fillColor=none;points=[[0,0.5],[1,0.5]];portConstraint=eastwest;strokeColor=inherit;fontSize=16;" vertex="1" parent="wTen16TL0sHBwGDb7RQF-107">
          <mxGeometry y="90" width="270" height="30" as="geometry" />
        </mxCell>
        <mxCell id="wTen16TL0sHBwGDb7RQF-115" value="int" style="shape=partialRectangle;html=1;whiteSpace=wrap;connectable=0;fillColor=none;top=1;left=0;bottom=0;right=0;overflow=hidden;strokeColor=inherit;fontSize=16;" vertex="1" parent="wTen16TL0sHBwGDb7RQF-114">
          <mxGeometry width="90" height="30" as="geometry">
            <mxRectangle width="90" height="30" as="alternateBounds" />
          </mxGeometry>
        </mxCell>
        <mxCell id="wTen16TL0sHBwGDb7RQF-116" value="departament_id" style="shape=partialRectangle;html=1;whiteSpace=wrap;connectable=0;fillColor=#e1d5e7;top=1;left=0;bottom=0;right=0;align=left;spacingLeft=6;overflow=hidden;strokeColor=#9673a6;fontSize=16;" vertex="1" parent="wTen16TL0sHBwGDb7RQF-114">
          <mxGeometry x="90" width="180" height="30" as="geometry">
            <mxRectangle width="180" height="30" as="alternateBounds" />
          </mxGeometry>
        </mxCell>
        <mxCell id="wTen16TL0sHBwGDb7RQF-117" style="shape=tableRow;horizontal=0;startSize=0;swimlaneHead=0;swimlaneBody=0;top=0;left=0;bottom=0;right=0;collapsible=0;dropTarget=0;fillColor=none;points=[[0,0.5],[1,0.5]];portConstraint=eastwest;strokeColor=inherit;fontSize=16;" vertex="1" parent="wTen16TL0sHBwGDb7RQF-107">
          <mxGeometry y="120" width="270" height="30" as="geometry" />
        </mxCell>
        <mxCell id="wTen16TL0sHBwGDb7RQF-118" value="int" style="shape=partialRectangle;html=1;whiteSpace=wrap;connectable=0;fillColor=none;top=1;left=0;bottom=0;right=0;overflow=hidden;strokeColor=inherit;fontSize=16;" vertex="1" parent="wTen16TL0sHBwGDb7RQF-117">
          <mxGeometry width="90" height="30" as="geometry">
            <mxRectangle width="90" height="30" as="alternateBounds" />
          </mxGeometry>
        </mxCell>
        <mxCell id="wTen16TL0sHBwGDb7RQF-119" value="position_id" style="shape=partialRectangle;html=1;whiteSpace=wrap;connectable=0;fillColor=#e1d5e7;top=1;left=0;bottom=0;right=0;align=left;spacingLeft=6;overflow=hidden;strokeColor=#9673a6;fontSize=16;" vertex="1" parent="wTen16TL0sHBwGDb7RQF-117">
          <mxGeometry x="90" width="180" height="30" as="geometry">
            <mxRectangle width="180" height="30" as="alternateBounds" />
          </mxGeometry>
        </mxCell>
        <mxCell id="wTen16TL0sHBwGDb7RQF-120" style="shape=tableRow;horizontal=0;startSize=0;swimlaneHead=0;swimlaneBody=0;top=0;left=0;bottom=0;right=0;collapsible=0;dropTarget=0;fillColor=none;points=[[0,0.5],[1,0.5]];portConstraint=eastwest;strokeColor=inherit;fontSize=16;" vertex="1" parent="wTen16TL0sHBwGDb7RQF-107">
          <mxGeometry y="150" width="270" height="30" as="geometry" />
        </mxCell>
        <mxCell id="wTen16TL0sHBwGDb7RQF-121" value="decimal" style="shape=partialRectangle;html=1;whiteSpace=wrap;connectable=0;fillColor=none;top=1;left=0;bottom=0;right=0;overflow=hidden;strokeColor=inherit;fontSize=16;" vertex="1" parent="wTen16TL0sHBwGDb7RQF-120">
          <mxGeometry width="90" height="30" as="geometry">
            <mxRectangle width="90" height="30" as="alternateBounds" />
          </mxGeometry>
        </mxCell>
        <mxCell id="wTen16TL0sHBwGDb7RQF-122" value="salary" style="shape=partialRectangle;html=1;whiteSpace=wrap;connectable=0;fillColor=none;top=1;left=0;bottom=0;right=0;align=left;spacingLeft=6;overflow=hidden;strokeColor=inherit;fontSize=16;" vertex="1" parent="wTen16TL0sHBwGDb7RQF-120">
          <mxGeometry x="90" width="180" height="30" as="geometry">
            <mxRectangle width="180" height="30" as="alternateBounds" />
          </mxGeometry>
        </mxCell>
        <mxCell id="wTen16TL0sHBwGDb7RQF-123" style="shape=tableRow;horizontal=0;startSize=0;swimlaneHead=0;swimlaneBody=0;top=0;left=0;bottom=0;right=0;collapsible=0;dropTarget=0;fillColor=none;points=[[0,0.5],[1,0.5]];portConstraint=eastwest;strokeColor=inherit;fontSize=16;" vertex="1" parent="wTen16TL0sHBwGDb7RQF-107">
          <mxGeometry y="180" width="270" height="30" as="geometry" />
        </mxCell>
        <mxCell id="wTen16TL0sHBwGDb7RQF-124" value="timestamp" style="shape=partialRectangle;html=1;whiteSpace=wrap;connectable=0;fillColor=none;top=1;left=0;bottom=0;right=0;overflow=hidden;strokeColor=inherit;fontSize=16;" vertex="1" parent="wTen16TL0sHBwGDb7RQF-123">
          <mxGeometry width="90" height="30" as="geometry">
            <mxRectangle width="90" height="30" as="alternateBounds" />
          </mxGeometry>
        </mxCell>
        <mxCell id="wTen16TL0sHBwGDb7RQF-125" value="operation_date" style="shape=partialRectangle;html=1;whiteSpace=wrap;connectable=0;fillColor=none;top=1;left=0;bottom=0;right=0;align=left;spacingLeft=6;overflow=hidden;strokeColor=inherit;fontSize=16;" vertex="1" parent="wTen16TL0sHBwGDb7RQF-123">
          <mxGeometry x="90" width="180" height="30" as="geometry">
            <mxRectangle width="180" height="30" as="alternateBounds" />
          </mxGeometry>
        </mxCell>
        <mxCell id="wTen16TL0sHBwGDb7RQF-194" style="shape=tableRow;horizontal=0;startSize=0;swimlaneHead=0;swimlaneBody=0;top=0;left=0;bottom=0;right=0;collapsible=0;dropTarget=0;fillColor=none;points=[[0,0.5],[1,0.5]];portConstraint=eastwest;strokeColor=inherit;fontSize=16;" vertex="1" parent="wTen16TL0sHBwGDb7RQF-107">
          <mxGeometry y="210" width="270" height="30" as="geometry" />
        </mxCell>
        <mxCell id="wTen16TL0sHBwGDb7RQF-195" value="timestamp" style="shape=partialRectangle;html=1;whiteSpace=wrap;connectable=0;fillColor=none;top=1;left=0;bottom=0;right=0;overflow=hidden;strokeColor=inherit;fontSize=16;" vertex="1" parent="wTen16TL0sHBwGDb7RQF-194">
          <mxGeometry width="90" height="30" as="geometry">
            <mxRectangle width="90" height="30" as="alternateBounds" />
          </mxGeometry>
        </mxCell>
        <mxCell id="wTen16TL0sHBwGDb7RQF-196" value="deleted_at" style="shape=partialRectangle;html=1;whiteSpace=wrap;connectable=0;fillColor=none;top=1;left=0;bottom=0;right=0;align=left;spacingLeft=6;overflow=hidden;strokeColor=inherit;fontSize=16;" vertex="1" parent="wTen16TL0sHBwGDb7RQF-194">
          <mxGeometry x="90" width="180" height="30" as="geometry">
            <mxRectangle width="180" height="30" as="alternateBounds" />
          </mxGeometry>
        </mxCell>
        <mxCell id="wTen16TL0sHBwGDb7RQF-126" value="POSITIONS" style="shape=table;startSize=30;container=1;collapsible=0;childLayout=tableLayout;fixedRows=1;rowLines=0;fontStyle=0;strokeColor=default;fontSize=16;rounded=1;sketch=1;curveFitting=1;jiggle=2;shadow=0;miterlimit=4;" vertex="1" parent="1">
          <mxGeometry x="50" y="900" width="270" height="120" as="geometry" />
        </mxCell>
        <mxCell id="wTen16TL0sHBwGDb7RQF-127" value="" style="shape=tableRow;horizontal=0;startSize=0;swimlaneHead=0;swimlaneBody=0;top=0;left=0;bottom=0;right=0;collapsible=0;dropTarget=0;fillColor=none;points=[[0,0.5],[1,0.5]];portConstraint=eastwest;strokeColor=inherit;fontSize=16;" vertex="1" parent="wTen16TL0sHBwGDb7RQF-126">
          <mxGeometry y="30" width="270" height="30" as="geometry" />
        </mxCell>
        <mxCell id="wTen16TL0sHBwGDb7RQF-128" value="int" style="shape=partialRectangle;html=1;whiteSpace=wrap;connectable=0;fillColor=none;top=1;left=0;bottom=0;right=0;overflow=hidden;pointerEvents=1;strokeColor=inherit;fontSize=16;" vertex="1" parent="wTen16TL0sHBwGDb7RQF-127">
          <mxGeometry width="90" height="30" as="geometry">
            <mxRectangle width="90" height="30" as="alternateBounds" />
          </mxGeometry>
        </mxCell>
        <mxCell id="wTen16TL0sHBwGDb7RQF-129" value="id" style="shape=partialRectangle;html=1;whiteSpace=wrap;connectable=0;fillColor=#fff2cc;top=1;left=0;bottom=0;right=0;align=left;spacingLeft=6;overflow=hidden;strokeColor=#d6b656;fontSize=16;" vertex="1" parent="wTen16TL0sHBwGDb7RQF-127">
          <mxGeometry x="90" width="180" height="30" as="geometry">
            <mxRectangle width="180" height="30" as="alternateBounds" />
          </mxGeometry>
        </mxCell>
        <mxCell id="wTen16TL0sHBwGDb7RQF-130" value="" style="shape=tableRow;horizontal=0;startSize=0;swimlaneHead=0;swimlaneBody=0;top=0;left=0;bottom=0;right=0;collapsible=0;dropTarget=0;fillColor=none;points=[[0,0.5],[1,0.5]];portConstraint=eastwest;strokeColor=inherit;fontSize=16;" vertex="1" parent="wTen16TL0sHBwGDb7RQF-126">
          <mxGeometry y="60" width="270" height="30" as="geometry" />
        </mxCell>
        <mxCell id="wTen16TL0sHBwGDb7RQF-131" value="string" style="shape=partialRectangle;html=1;whiteSpace=wrap;connectable=0;fillColor=none;top=1;left=0;bottom=0;right=0;overflow=hidden;strokeColor=inherit;fontSize=16;" vertex="1" parent="wTen16TL0sHBwGDb7RQF-130">
          <mxGeometry width="90" height="30" as="geometry">
            <mxRectangle width="90" height="30" as="alternateBounds" />
          </mxGeometry>
        </mxCell>
        <mxCell id="wTen16TL0sHBwGDb7RQF-132" value="name" style="shape=partialRectangle;html=1;whiteSpace=wrap;connectable=0;fillColor=none;top=1;left=0;bottom=0;right=0;align=left;spacingLeft=6;overflow=hidden;strokeColor=inherit;fontSize=16;" vertex="1" parent="wTen16TL0sHBwGDb7RQF-130">
          <mxGeometry x="90" width="180" height="30" as="geometry">
            <mxRectangle width="180" height="30" as="alternateBounds" />
          </mxGeometry>
        </mxCell>
        <mxCell id="wTen16TL0sHBwGDb7RQF-191" style="shape=tableRow;horizontal=0;startSize=0;swimlaneHead=0;swimlaneBody=0;top=0;left=0;bottom=0;right=0;collapsible=0;dropTarget=0;fillColor=none;points=[[0,0.5],[1,0.5]];portConstraint=eastwest;strokeColor=inherit;fontSize=16;" vertex="1" parent="wTen16TL0sHBwGDb7RQF-126">
          <mxGeometry y="90" width="270" height="30" as="geometry" />
        </mxCell>
        <mxCell id="wTen16TL0sHBwGDb7RQF-192" value="timestamp" style="shape=partialRectangle;html=1;whiteSpace=wrap;connectable=0;fillColor=none;top=1;left=0;bottom=0;right=0;overflow=hidden;strokeColor=inherit;fontSize=16;" vertex="1" parent="wTen16TL0sHBwGDb7RQF-191">
          <mxGeometry width="90" height="30" as="geometry">
            <mxRectangle width="90" height="30" as="alternateBounds" />
          </mxGeometry>
        </mxCell>
        <mxCell id="wTen16TL0sHBwGDb7RQF-193" value="deleted_at" style="shape=partialRectangle;html=1;whiteSpace=wrap;connectable=0;fillColor=none;top=1;left=0;bottom=0;right=0;align=left;spacingLeft=6;overflow=hidden;strokeColor=inherit;fontSize=16;" vertex="1" parent="wTen16TL0sHBwGDb7RQF-191">
          <mxGeometry x="90" width="180" height="30" as="geometry">
            <mxRectangle width="180" height="30" as="alternateBounds" />
          </mxGeometry>
        </mxCell>
        <mxCell id="wTen16TL0sHBwGDb7RQF-136" value="EMPLOYEES" style="shape=table;startSize=30;container=1;collapsible=0;childLayout=tableLayout;fixedRows=1;rowLines=0;fontStyle=0;strokeColor=default;fontSize=16;rounded=1;sketch=1;curveFitting=1;jiggle=2;shadow=0;miterlimit=4;" vertex="1" parent="1">
          <mxGeometry x="430" y="500" width="270" height="270" as="geometry" />
        </mxCell>
        <mxCell id="wTen16TL0sHBwGDb7RQF-137" value="" style="shape=tableRow;horizontal=0;startSize=0;swimlaneHead=0;swimlaneBody=0;top=0;left=0;bottom=0;right=0;collapsible=0;dropTarget=0;fillColor=none;points=[[0,0.5],[1,0.5]];portConstraint=eastwest;strokeColor=inherit;fontSize=16;" vertex="1" parent="wTen16TL0sHBwGDb7RQF-136">
          <mxGeometry y="30" width="270" height="30" as="geometry" />
        </mxCell>
        <mxCell id="wTen16TL0sHBwGDb7RQF-138" value="int" style="shape=partialRectangle;html=1;whiteSpace=wrap;connectable=0;fillColor=none;top=1;left=0;bottom=0;right=0;overflow=hidden;pointerEvents=1;strokeColor=inherit;fontSize=16;" vertex="1" parent="wTen16TL0sHBwGDb7RQF-137">
          <mxGeometry width="90" height="30" as="geometry">
            <mxRectangle width="90" height="30" as="alternateBounds" />
          </mxGeometry>
        </mxCell>
        <mxCell id="wTen16TL0sHBwGDb7RQF-139" value="id" style="shape=partialRectangle;html=1;whiteSpace=wrap;connectable=0;fillColor=#fff2cc;top=1;left=0;bottom=0;right=0;align=left;spacingLeft=6;overflow=hidden;strokeColor=#d6b656;fontSize=16;" vertex="1" parent="wTen16TL0sHBwGDb7RQF-137">
          <mxGeometry x="90" width="180" height="30" as="geometry">
            <mxRectangle width="180" height="30" as="alternateBounds" />
          </mxGeometry>
        </mxCell>
        <mxCell id="wTen16TL0sHBwGDb7RQF-140" value="" style="shape=tableRow;horizontal=0;startSize=0;swimlaneHead=0;swimlaneBody=0;top=0;left=0;bottom=0;right=0;collapsible=0;dropTarget=0;fillColor=none;points=[[0,0.5],[1,0.5]];portConstraint=eastwest;strokeColor=inherit;fontSize=16;" vertex="1" parent="wTen16TL0sHBwGDb7RQF-136">
          <mxGeometry y="60" width="270" height="30" as="geometry" />
        </mxCell>
        <mxCell id="wTen16TL0sHBwGDb7RQF-141" value="string" style="shape=partialRectangle;html=1;whiteSpace=wrap;connectable=0;fillColor=none;top=1;left=0;bottom=0;right=0;overflow=hidden;strokeColor=inherit;fontSize=16;" vertex="1" parent="wTen16TL0sHBwGDb7RQF-140">
          <mxGeometry width="90" height="30" as="geometry">
            <mxRectangle width="90" height="30" as="alternateBounds" />
          </mxGeometry>
        </mxCell>
        <mxCell id="wTen16TL0sHBwGDb7RQF-142" value="last_name" style="shape=partialRectangle;html=1;whiteSpace=wrap;connectable=0;fillColor=none;top=1;left=0;bottom=0;right=0;align=left;spacingLeft=6;overflow=hidden;strokeColor=inherit;fontSize=16;" vertex="1" parent="wTen16TL0sHBwGDb7RQF-140">
          <mxGeometry x="90" width="180" height="30" as="geometry">
            <mxRectangle width="180" height="30" as="alternateBounds" />
          </mxGeometry>
        </mxCell>
        <mxCell id="wTen16TL0sHBwGDb7RQF-143" value="" style="shape=tableRow;horizontal=0;startSize=0;swimlaneHead=0;swimlaneBody=0;top=0;left=0;bottom=0;right=0;collapsible=0;dropTarget=0;fillColor=none;points=[[0,0.5],[1,0.5]];portConstraint=eastwest;strokeColor=inherit;fontSize=16;" vertex="1" parent="wTen16TL0sHBwGDb7RQF-136">
          <mxGeometry y="90" width="270" height="30" as="geometry" />
        </mxCell>
        <mxCell id="wTen16TL0sHBwGDb7RQF-144" value="string" style="shape=partialRectangle;html=1;whiteSpace=wrap;connectable=0;fillColor=none;top=1;left=0;bottom=0;right=0;overflow=hidden;strokeColor=inherit;fontSize=16;" vertex="1" parent="wTen16TL0sHBwGDb7RQF-143">
          <mxGeometry width="90" height="30" as="geometry">
            <mxRectangle width="90" height="30" as="alternateBounds" />
          </mxGeometry>
        </mxCell>
        <mxCell id="wTen16TL0sHBwGDb7RQF-145" value="first_name" style="shape=partialRectangle;html=1;whiteSpace=wrap;connectable=0;fillColor=none;top=1;left=0;bottom=0;right=0;align=left;spacingLeft=6;overflow=hidden;strokeColor=inherit;fontSize=16;" vertex="1" parent="wTen16TL0sHBwGDb7RQF-143">
          <mxGeometry x="90" width="180" height="30" as="geometry">
            <mxRectangle width="180" height="30" as="alternateBounds" />
          </mxGeometry>
        </mxCell>
        <mxCell id="wTen16TL0sHBwGDb7RQF-146" style="shape=tableRow;horizontal=0;startSize=0;swimlaneHead=0;swimlaneBody=0;top=0;left=0;bottom=0;right=0;collapsible=0;dropTarget=0;fillColor=none;points=[[0,0.5],[1,0.5]];portConstraint=eastwest;strokeColor=inherit;fontSize=16;" vertex="1" parent="wTen16TL0sHBwGDb7RQF-136">
          <mxGeometry y="120" width="270" height="30" as="geometry" />
        </mxCell>
        <mxCell id="wTen16TL0sHBwGDb7RQF-147" value="string" style="shape=partialRectangle;html=1;whiteSpace=wrap;connectable=0;fillColor=none;top=1;left=0;bottom=0;right=0;overflow=hidden;strokeColor=inherit;fontSize=16;" vertex="1" parent="wTen16TL0sHBwGDb7RQF-146">
          <mxGeometry width="90" height="30" as="geometry">
            <mxRectangle width="90" height="30" as="alternateBounds" />
          </mxGeometry>
        </mxCell>
        <mxCell id="wTen16TL0sHBwGDb7RQF-148" value="middle_name" style="shape=partialRectangle;html=1;whiteSpace=wrap;connectable=0;fillColor=none;top=1;left=0;bottom=0;right=0;align=left;spacingLeft=6;overflow=hidden;strokeColor=inherit;fontSize=16;" vertex="1" parent="wTen16TL0sHBwGDb7RQF-146">
          <mxGeometry x="90" width="180" height="30" as="geometry">
            <mxRectangle width="180" height="30" as="alternateBounds" />
          </mxGeometry>
        </mxCell>
        <mxCell id="wTen16TL0sHBwGDb7RQF-149" style="shape=tableRow;horizontal=0;startSize=0;swimlaneHead=0;swimlaneBody=0;top=0;left=0;bottom=0;right=0;collapsible=0;dropTarget=0;fillColor=none;points=[[0,0.5],[1,0.5]];portConstraint=eastwest;strokeColor=inherit;fontSize=16;" vertex="1" parent="wTen16TL0sHBwGDb7RQF-136">
          <mxGeometry y="150" width="270" height="30" as="geometry" />
        </mxCell>
        <mxCell id="wTen16TL0sHBwGDb7RQF-150" value="date" style="shape=partialRectangle;html=1;whiteSpace=wrap;connectable=0;fillColor=none;top=1;left=0;bottom=0;right=0;overflow=hidden;strokeColor=inherit;fontSize=16;" vertex="1" parent="wTen16TL0sHBwGDb7RQF-149">
          <mxGeometry width="90" height="30" as="geometry">
            <mxRectangle width="90" height="30" as="alternateBounds" />
          </mxGeometry>
        </mxCell>
        <mxCell id="wTen16TL0sHBwGDb7RQF-151" value="birth_date" style="shape=partialRectangle;html=1;whiteSpace=wrap;connectable=0;fillColor=none;top=1;left=0;bottom=0;right=0;align=left;spacingLeft=6;overflow=hidden;strokeColor=inherit;fontSize=16;" vertex="1" parent="wTen16TL0sHBwGDb7RQF-149">
          <mxGeometry x="90" width="180" height="30" as="geometry">
            <mxRectangle width="180" height="30" as="alternateBounds" />
          </mxGeometry>
        </mxCell>
        <mxCell id="wTen16TL0sHBwGDb7RQF-155" style="shape=tableRow;horizontal=0;startSize=0;swimlaneHead=0;swimlaneBody=0;top=0;left=0;bottom=0;right=0;collapsible=0;dropTarget=0;fillColor=none;points=[[0,0.5],[1,0.5]];portConstraint=eastwest;strokeColor=inherit;fontSize=16;" vertex="1" parent="wTen16TL0sHBwGDb7RQF-136">
          <mxGeometry y="180" width="270" height="30" as="geometry" />
        </mxCell>
        <mxCell id="wTen16TL0sHBwGDb7RQF-156" value="jsonb" style="shape=partialRectangle;html=1;whiteSpace=wrap;connectable=0;fillColor=none;top=1;left=0;bottom=0;right=0;overflow=hidden;strokeColor=inherit;fontSize=16;" vertex="1" parent="wTen16TL0sHBwGDb7RQF-155">
          <mxGeometry width="90" height="30" as="geometry">
            <mxRectangle width="90" height="30" as="alternateBounds" />
          </mxGeometry>
        </mxCell>
        <mxCell id="wTen16TL0sHBwGDb7RQF-157" value="passport_data" style="shape=partialRectangle;html=1;whiteSpace=wrap;connectable=0;fillColor=none;top=1;left=0;bottom=0;right=0;align=left;spacingLeft=6;overflow=hidden;strokeColor=inherit;fontSize=16;" vertex="1" parent="wTen16TL0sHBwGDb7RQF-155">
          <mxGeometry x="90" width="180" height="30" as="geometry">
            <mxRectangle width="180" height="30" as="alternateBounds" />
          </mxGeometry>
        </mxCell>
        <mxCell id="wTen16TL0sHBwGDb7RQF-152" style="shape=tableRow;horizontal=0;startSize=0;swimlaneHead=0;swimlaneBody=0;top=0;left=0;bottom=0;right=0;collapsible=0;dropTarget=0;fillColor=none;points=[[0,0.5],[1,0.5]];portConstraint=eastwest;strokeColor=inherit;fontSize=16;" vertex="1" parent="wTen16TL0sHBwGDb7RQF-136">
          <mxGeometry y="210" width="270" height="30" as="geometry" />
        </mxCell>
        <mxCell id="wTen16TL0sHBwGDb7RQF-153" value="jsonb" style="shape=partialRectangle;html=1;whiteSpace=wrap;connectable=0;fillColor=none;top=1;left=0;bottom=0;right=0;overflow=hidden;strokeColor=inherit;fontSize=16;" vertex="1" parent="wTen16TL0sHBwGDb7RQF-152">
          <mxGeometry width="90" height="30" as="geometry">
            <mxRectangle width="90" height="30" as="alternateBounds" />
          </mxGeometry>
        </mxCell>
        <mxCell id="wTen16TL0sHBwGDb7RQF-154" value="registration_address" style="shape=partialRectangle;html=1;whiteSpace=wrap;connectable=0;fillColor=none;top=1;left=0;bottom=0;right=0;align=left;spacingLeft=6;overflow=hidden;strokeColor=inherit;fontSize=16;" vertex="1" parent="wTen16TL0sHBwGDb7RQF-152">
          <mxGeometry x="90" width="180" height="30" as="geometry">
            <mxRectangle width="180" height="30" as="alternateBounds" />
          </mxGeometry>
        </mxCell>
        <mxCell id="wTen16TL0sHBwGDb7RQF-201" style="shape=tableRow;horizontal=0;startSize=0;swimlaneHead=0;swimlaneBody=0;top=0;left=0;bottom=0;right=0;collapsible=0;dropTarget=0;fillColor=none;points=[[0,0.5],[1,0.5]];portConstraint=eastwest;strokeColor=inherit;fontSize=16;" vertex="1" parent="wTen16TL0sHBwGDb7RQF-136">
          <mxGeometry y="240" width="270" height="30" as="geometry" />
        </mxCell>
        <mxCell id="wTen16TL0sHBwGDb7RQF-202" value="&lt;span style=&quot;text-align: left;&quot;&gt;timestamp&lt;/span&gt;" style="shape=partialRectangle;html=1;whiteSpace=wrap;connectable=0;fillColor=none;top=1;left=0;bottom=0;right=0;overflow=hidden;strokeColor=inherit;fontSize=16;" vertex="1" parent="wTen16TL0sHBwGDb7RQF-201">
          <mxGeometry width="90" height="30" as="geometry">
            <mxRectangle width="90" height="30" as="alternateBounds" />
          </mxGeometry>
        </mxCell>
        <mxCell id="wTen16TL0sHBwGDb7RQF-203" value="deleted_at" style="shape=partialRectangle;html=1;whiteSpace=wrap;connectable=0;fillColor=none;top=1;left=0;bottom=0;right=0;align=left;spacingLeft=6;overflow=hidden;strokeColor=inherit;fontSize=16;" vertex="1" parent="wTen16TL0sHBwGDb7RQF-201">
          <mxGeometry x="90" width="180" height="30" as="geometry">
            <mxRectangle width="180" height="30" as="alternateBounds" />
          </mxGeometry>
        </mxCell>
        <mxCell id="wTen16TL0sHBwGDb7RQF-158" value="FILES" style="shape=table;startSize=30;container=1;collapsible=0;childLayout=tableLayout;fixedRows=1;rowLines=0;fontStyle=0;strokeColor=default;fontSize=16;rounded=1;sketch=1;curveFitting=1;jiggle=2;shadow=0;miterlimit=4;" vertex="1" parent="1">
          <mxGeometry x="420" y="850" width="270" height="180" as="geometry" />
        </mxCell>
        <mxCell id="wTen16TL0sHBwGDb7RQF-159" value="" style="shape=tableRow;horizontal=0;startSize=0;swimlaneHead=0;swimlaneBody=0;top=0;left=0;bottom=0;right=0;collapsible=0;dropTarget=0;fillColor=none;points=[[0,0.5],[1,0.5]];portConstraint=eastwest;strokeColor=inherit;fontSize=16;" vertex="1" parent="wTen16TL0sHBwGDb7RQF-158">
          <mxGeometry y="30" width="270" height="30" as="geometry" />
        </mxCell>
        <mxCell id="wTen16TL0sHBwGDb7RQF-160" value="int" style="shape=partialRectangle;html=1;whiteSpace=wrap;connectable=0;fillColor=none;top=1;left=0;bottom=0;right=0;overflow=hidden;pointerEvents=1;strokeColor=inherit;fontSize=16;" vertex="1" parent="wTen16TL0sHBwGDb7RQF-159">
          <mxGeometry width="90" height="30" as="geometry">
            <mxRectangle width="90" height="30" as="alternateBounds" />
          </mxGeometry>
        </mxCell>
        <mxCell id="wTen16TL0sHBwGDb7RQF-161" value="id" style="shape=partialRectangle;html=1;whiteSpace=wrap;connectable=0;fillColor=#fff2cc;top=1;left=0;bottom=0;right=0;align=left;spacingLeft=6;overflow=hidden;strokeColor=#d6b656;fontSize=16;" vertex="1" parent="wTen16TL0sHBwGDb7RQF-159">
          <mxGeometry x="90" width="180" height="30" as="geometry">
            <mxRectangle width="180" height="30" as="alternateBounds" />
          </mxGeometry>
        </mxCell>
        <mxCell id="wTen16TL0sHBwGDb7RQF-162" value="" style="shape=tableRow;horizontal=0;startSize=0;swimlaneHead=0;swimlaneBody=0;top=0;left=0;bottom=0;right=0;collapsible=0;dropTarget=0;fillColor=none;points=[[0,0.5],[1,0.5]];portConstraint=eastwest;strokeColor=inherit;fontSize=16;" vertex="1" parent="wTen16TL0sHBwGDb7RQF-158">
          <mxGeometry y="60" width="270" height="30" as="geometry" />
        </mxCell>
        <mxCell id="wTen16TL0sHBwGDb7RQF-163" value="string" style="shape=partialRectangle;html=1;whiteSpace=wrap;connectable=0;fillColor=none;top=1;left=0;bottom=0;right=0;overflow=hidden;strokeColor=inherit;fontSize=16;" vertex="1" parent="wTen16TL0sHBwGDb7RQF-162">
          <mxGeometry width="90" height="30" as="geometry">
            <mxRectangle width="90" height="30" as="alternateBounds" />
          </mxGeometry>
        </mxCell>
        <mxCell id="wTen16TL0sHBwGDb7RQF-164" value="filename" style="shape=partialRectangle;html=1;whiteSpace=wrap;connectable=0;fillColor=none;top=1;left=0;bottom=0;right=0;align=left;spacingLeft=6;overflow=hidden;strokeColor=inherit;fontSize=16;" vertex="1" parent="wTen16TL0sHBwGDb7RQF-162">
          <mxGeometry x="90" width="180" height="30" as="geometry">
            <mxRectangle width="180" height="30" as="alternateBounds" />
          </mxGeometry>
        </mxCell>
        <mxCell id="wTen16TL0sHBwGDb7RQF-165" style="shape=tableRow;horizontal=0;startSize=0;swimlaneHead=0;swimlaneBody=0;top=0;left=0;bottom=0;right=0;collapsible=0;dropTarget=0;fillColor=none;points=[[0,0.5],[1,0.5]];portConstraint=eastwest;strokeColor=inherit;fontSize=16;" vertex="1" parent="wTen16TL0sHBwGDb7RQF-158">
          <mxGeometry y="90" width="270" height="30" as="geometry" />
        </mxCell>
        <mxCell id="wTen16TL0sHBwGDb7RQF-166" value="bytea" style="shape=partialRectangle;html=1;whiteSpace=wrap;connectable=0;fillColor=none;top=1;left=0;bottom=0;right=0;overflow=hidden;strokeColor=inherit;fontSize=16;" vertex="1" parent="wTen16TL0sHBwGDb7RQF-165">
          <mxGeometry width="90" height="30" as="geometry">
            <mxRectangle width="90" height="30" as="alternateBounds" />
          </mxGeometry>
        </mxCell>
        <mxCell id="wTen16TL0sHBwGDb7RQF-167" value="content" style="shape=partialRectangle;html=1;whiteSpace=wrap;connectable=0;fillColor=none;top=1;left=0;bottom=0;right=0;align=left;spacingLeft=6;overflow=hidden;strokeColor=inherit;fontSize=16;" vertex="1" parent="wTen16TL0sHBwGDb7RQF-165">
          <mxGeometry x="90" width="180" height="30" as="geometry">
            <mxRectangle width="180" height="30" as="alternateBounds" />
          </mxGeometry>
        </mxCell>
        <mxCell id="wTen16TL0sHBwGDb7RQF-168" style="shape=tableRow;horizontal=0;startSize=0;swimlaneHead=0;swimlaneBody=0;top=0;left=0;bottom=0;right=0;collapsible=0;dropTarget=0;fillColor=none;points=[[0,0.5],[1,0.5]];portConstraint=eastwest;strokeColor=inherit;fontSize=16;" vertex="1" parent="wTen16TL0sHBwGDb7RQF-158">
          <mxGeometry y="120" width="270" height="30" as="geometry" />
        </mxCell>
        <mxCell id="wTen16TL0sHBwGDb7RQF-169" value="int" style="shape=partialRectangle;html=1;whiteSpace=wrap;connectable=0;fillColor=none;top=1;left=0;bottom=0;right=0;overflow=hidden;strokeColor=inherit;fontSize=16;" vertex="1" parent="wTen16TL0sHBwGDb7RQF-168">
          <mxGeometry width="90" height="30" as="geometry">
            <mxRectangle width="90" height="30" as="alternateBounds" />
          </mxGeometry>
        </mxCell>
        <mxCell id="wTen16TL0sHBwGDb7RQF-170" value="employee_id" style="shape=partialRectangle;html=1;whiteSpace=wrap;connectable=0;fillColor=#e1d5e7;top=1;left=0;bottom=0;right=0;align=left;spacingLeft=6;overflow=hidden;strokeColor=#9673a6;fontSize=16;" vertex="1" parent="wTen16TL0sHBwGDb7RQF-168">
          <mxGeometry x="90" width="180" height="30" as="geometry">
            <mxRectangle width="180" height="30" as="alternateBounds" />
          </mxGeometry>
        </mxCell>
        <mxCell id="wTen16TL0sHBwGDb7RQF-198" style="shape=tableRow;horizontal=0;startSize=0;swimlaneHead=0;swimlaneBody=0;top=0;left=0;bottom=0;right=0;collapsible=0;dropTarget=0;fillColor=none;points=[[0,0.5],[1,0.5]];portConstraint=eastwest;strokeColor=inherit;fontSize=16;" vertex="1" parent="wTen16TL0sHBwGDb7RQF-158">
          <mxGeometry y="150" width="270" height="30" as="geometry" />
        </mxCell>
        <mxCell id="wTen16TL0sHBwGDb7RQF-199" value="&lt;div style=&quot;text-align: left;&quot;&gt;&lt;span style=&quot;background-color: transparent; color: light-dark(rgb(0, 0, 0), rgb(255, 255, 255));&quot;&gt;timestamp&lt;/span&gt;&lt;/div&gt;" style="shape=partialRectangle;html=1;whiteSpace=wrap;connectable=0;fillColor=none;top=1;left=0;bottom=0;right=0;overflow=hidden;strokeColor=inherit;fontSize=16;" vertex="1" parent="wTen16TL0sHBwGDb7RQF-198">
          <mxGeometry width="90" height="30" as="geometry">
            <mxRectangle width="90" height="30" as="alternateBounds" />
          </mxGeometry>
        </mxCell>
        <mxCell id="wTen16TL0sHBwGDb7RQF-200" value="deleted_at" style="shape=partialRectangle;html=1;whiteSpace=wrap;connectable=0;fillColor=none;top=1;left=0;bottom=0;right=0;align=left;spacingLeft=6;overflow=hidden;strokeColor=inherit;fontSize=16;" vertex="1" parent="wTen16TL0sHBwGDb7RQF-198">
          <mxGeometry x="90" width="180" height="30" as="geometry">
            <mxRectangle width="180" height="30" as="alternateBounds" />
          </mxGeometry>
        </mxCell>
        <mxCell id="wTen16TL0sHBwGDb7RQF-173" style="edgeStyle=orthogonalEdgeStyle;rounded=0;orthogonalLoop=1;jettySize=auto;html=1;entryX=1;entryY=0.5;entryDx=0;entryDy=0;flowAnimation=0;startArrow=ERmandOne;startFill=0;endArrow=ERzeroToMany;endFill=0;exitX=1;exitY=0.5;exitDx=0;exitDy=0;strokeWidth=2;" edge="1" parent="1" source="wTen16TL0sHBwGDb7RQF-37" target="wTen16TL0sHBwGDb7RQF-85">
          <mxGeometry relative="1" as="geometry" />
        </mxCell>
        <mxCell id="wTen16TL0sHBwGDb7RQF-175" style="edgeStyle=orthogonalEdgeStyle;rounded=0;orthogonalLoop=1;jettySize=auto;html=1;entryX=0;entryY=0.5;entryDx=0;entryDy=0;startArrow=ERmandOne;startFill=0;endArrow=ERzeroToMany;endFill=0;exitX=0;exitY=0.5;exitDx=0;exitDy=0;strokeWidth=2;" edge="1" parent="1" source="wTen16TL0sHBwGDb7RQF-82" target="wTen16TL0sHBwGDb7RQF-114">
          <mxGeometry relative="1" as="geometry" />
        </mxCell>
        <mxCell id="wTen16TL0sHBwGDb7RQF-176" style="edgeStyle=orthogonalEdgeStyle;rounded=0;orthogonalLoop=1;jettySize=auto;html=1;entryX=0;entryY=0.5;entryDx=0;entryDy=0;startArrow=ERmandOne;startFill=0;endArrow=ERzeroToMany;endFill=0;strokeWidth=2;" edge="1" parent="1" source="wTen16TL0sHBwGDb7RQF-127" target="wTen16TL0sHBwGDb7RQF-117">
          <mxGeometry relative="1" as="geometry" />
        </mxCell>
        <mxCell id="wTen16TL0sHBwGDb7RQF-177" style="edgeStyle=orthogonalEdgeStyle;rounded=0;orthogonalLoop=1;jettySize=auto;html=1;entryX=1;entryY=0.5;entryDx=0;entryDy=0;startArrow=ERmandOne;startFill=0;endArrow=ERzeroToMany;endFill=0;strokeWidth=2;" edge="1" parent="1" source="wTen16TL0sHBwGDb7RQF-137" target="wTen16TL0sHBwGDb7RQF-111">
          <mxGeometry relative="1" as="geometry" />
        </mxCell>
        <mxCell id="wTen16TL0sHBwGDb7RQF-197" style="edgeStyle=orthogonalEdgeStyle;rounded=0;orthogonalLoop=1;jettySize=auto;html=1;entryX=1;entryY=0.5;entryDx=0;entryDy=0;startArrow=ERmandOne;startFill=0;endArrow=ERzeroToMany;endFill=0;strokeWidth=2;" edge="1" parent="1" source="wTen16TL0sHBwGDb7RQF-168" target="wTen16TL0sHBwGDb7RQF-137">
          <mxGeometry relative="1" as="geometry" />
        </mxCell>
        <mxCell id="wTen16TL0sHBwGDb7RQF-204" value="USERS" style="shape=table;startSize=30;container=1;collapsible=0;childLayout=tableLayout;fixedRows=1;rowLines=0;fontStyle=0;strokeColor=default;fontSize=16;rounded=1;sketch=1;curveFitting=1;jiggle=2;shadow=0;miterlimit=4;" vertex="1" parent="1">
          <mxGeometry x="840" y="110" width="270" height="270" as="geometry" />
        </mxCell>
        <mxCell id="wTen16TL0sHBwGDb7RQF-205" value="" style="shape=tableRow;horizontal=0;startSize=0;swimlaneHead=0;swimlaneBody=0;top=0;left=0;bottom=0;right=0;collapsible=0;dropTarget=0;fillColor=none;points=[[0,0.5],[1,0.5]];portConstraint=eastwest;strokeColor=inherit;fontSize=16;" vertex="1" parent="wTen16TL0sHBwGDb7RQF-204">
          <mxGeometry y="30" width="270" height="30" as="geometry" />
        </mxCell>
        <mxCell id="wTen16TL0sHBwGDb7RQF-206" value="int" style="shape=partialRectangle;html=1;whiteSpace=wrap;connectable=0;fillColor=none;top=1;left=0;bottom=0;right=0;overflow=hidden;pointerEvents=1;strokeColor=inherit;fontSize=16;" vertex="1" parent="wTen16TL0sHBwGDb7RQF-205">
          <mxGeometry width="90" height="30" as="geometry">
            <mxRectangle width="90" height="30" as="alternateBounds" />
          </mxGeometry>
        </mxCell>
        <mxCell id="wTen16TL0sHBwGDb7RQF-207" value="id" style="shape=partialRectangle;html=1;whiteSpace=wrap;connectable=0;fillColor=#fff2cc;top=1;left=0;bottom=0;right=0;align=left;spacingLeft=6;overflow=hidden;strokeColor=#d6b656;fontSize=16;" vertex="1" parent="wTen16TL0sHBwGDb7RQF-205">
          <mxGeometry x="90" width="180" height="30" as="geometry">
            <mxRectangle width="180" height="30" as="alternateBounds" />
          </mxGeometry>
        </mxCell>
        <mxCell id="wTen16TL0sHBwGDb7RQF-208" value="" style="shape=tableRow;horizontal=0;startSize=0;swimlaneHead=0;swimlaneBody=0;top=0;left=0;bottom=0;right=0;collapsible=0;dropTarget=0;fillColor=none;points=[[0,0.5],[1,0.5]];portConstraint=eastwest;strokeColor=inherit;fontSize=16;" vertex="1" parent="wTen16TL0sHBwGDb7RQF-204">
          <mxGeometry y="60" width="270" height="30" as="geometry" />
        </mxCell>
        <mxCell id="wTen16TL0sHBwGDb7RQF-209" value="string" style="shape=partialRectangle;html=1;whiteSpace=wrap;connectable=0;fillColor=none;top=1;left=0;bottom=0;right=0;overflow=hidden;strokeColor=inherit;fontSize=16;" vertex="1" parent="wTen16TL0sHBwGDb7RQF-208">
          <mxGeometry width="90" height="30" as="geometry">
            <mxRectangle width="90" height="30" as="alternateBounds" />
          </mxGeometry>
        </mxCell>
        <mxCell id="wTen16TL0sHBwGDb7RQF-210" value="last_name" style="shape=partialRectangle;html=1;whiteSpace=wrap;connectable=0;fillColor=none;top=1;left=0;bottom=0;right=0;align=left;spacingLeft=6;overflow=hidden;strokeColor=inherit;fontSize=16;" vertex="1" parent="wTen16TL0sHBwGDb7RQF-208">
          <mxGeometry x="90" width="180" height="30" as="geometry">
            <mxRectangle width="180" height="30" as="alternateBounds" />
          </mxGeometry>
        </mxCell>
        <mxCell id="wTen16TL0sHBwGDb7RQF-211" value="" style="shape=tableRow;horizontal=0;startSize=0;swimlaneHead=0;swimlaneBody=0;top=0;left=0;bottom=0;right=0;collapsible=0;dropTarget=0;fillColor=none;points=[[0,0.5],[1,0.5]];portConstraint=eastwest;strokeColor=inherit;fontSize=16;" vertex="1" parent="wTen16TL0sHBwGDb7RQF-204">
          <mxGeometry y="90" width="270" height="30" as="geometry" />
        </mxCell>
        <mxCell id="wTen16TL0sHBwGDb7RQF-212" value="string" style="shape=partialRectangle;html=1;whiteSpace=wrap;connectable=0;fillColor=none;top=1;left=0;bottom=0;right=0;overflow=hidden;strokeColor=inherit;fontSize=16;" vertex="1" parent="wTen16TL0sHBwGDb7RQF-211">
          <mxGeometry width="90" height="30" as="geometry">
            <mxRectangle width="90" height="30" as="alternateBounds" />
          </mxGeometry>
        </mxCell>
        <mxCell id="wTen16TL0sHBwGDb7RQF-213" value="first_name" style="shape=partialRectangle;html=1;whiteSpace=wrap;connectable=0;fillColor=none;top=1;left=0;bottom=0;right=0;align=left;spacingLeft=6;overflow=hidden;strokeColor=inherit;fontSize=16;" vertex="1" parent="wTen16TL0sHBwGDb7RQF-211">
          <mxGeometry x="90" width="180" height="30" as="geometry">
            <mxRectangle width="180" height="30" as="alternateBounds" />
          </mxGeometry>
        </mxCell>
        <mxCell id="wTen16TL0sHBwGDb7RQF-214" style="shape=tableRow;horizontal=0;startSize=0;swimlaneHead=0;swimlaneBody=0;top=0;left=0;bottom=0;right=0;collapsible=0;dropTarget=0;fillColor=none;points=[[0,0.5],[1,0.5]];portConstraint=eastwest;strokeColor=inherit;fontSize=16;" vertex="1" parent="wTen16TL0sHBwGDb7RQF-204">
          <mxGeometry y="120" width="270" height="30" as="geometry" />
        </mxCell>
        <mxCell id="wTen16TL0sHBwGDb7RQF-215" value="string" style="shape=partialRectangle;html=1;whiteSpace=wrap;connectable=0;fillColor=none;top=1;left=0;bottom=0;right=0;overflow=hidden;strokeColor=inherit;fontSize=16;" vertex="1" parent="wTen16TL0sHBwGDb7RQF-214">
          <mxGeometry width="90" height="30" as="geometry">
            <mxRectangle width="90" height="30" as="alternateBounds" />
          </mxGeometry>
        </mxCell>
        <mxCell id="wTen16TL0sHBwGDb7RQF-216" value="middle_name" style="shape=partialRectangle;html=1;whiteSpace=wrap;connectable=0;fillColor=none;top=1;left=0;bottom=0;right=0;align=left;spacingLeft=6;overflow=hidden;strokeColor=inherit;fontSize=16;" vertex="1" parent="wTen16TL0sHBwGDb7RQF-214">
          <mxGeometry x="90" width="180" height="30" as="geometry">
            <mxRectangle width="180" height="30" as="alternateBounds" />
          </mxGeometry>
        </mxCell>
        <mxCell id="wTen16TL0sHBwGDb7RQF-217" style="shape=tableRow;horizontal=0;startSize=0;swimlaneHead=0;swimlaneBody=0;top=0;left=0;bottom=0;right=0;collapsible=0;dropTarget=0;fillColor=none;points=[[0,0.5],[1,0.5]];portConstraint=eastwest;strokeColor=inherit;fontSize=16;" vertex="1" parent="wTen16TL0sHBwGDb7RQF-204">
          <mxGeometry y="150" width="270" height="30" as="geometry" />
        </mxCell>
        <mxCell id="wTen16TL0sHBwGDb7RQF-218" value="string" style="shape=partialRectangle;html=1;whiteSpace=wrap;connectable=0;fillColor=none;top=1;left=0;bottom=0;right=0;overflow=hidden;strokeColor=inherit;fontSize=16;" vertex="1" parent="wTen16TL0sHBwGDb7RQF-217">
          <mxGeometry width="90" height="30" as="geometry">
            <mxRectangle width="90" height="30" as="alternateBounds" />
          </mxGeometry>
        </mxCell>
        <mxCell id="wTen16TL0sHBwGDb7RQF-219" value="login" style="shape=partialRectangle;html=1;whiteSpace=wrap;connectable=0;fillColor=none;top=1;left=0;bottom=0;right=0;align=left;spacingLeft=6;overflow=hidden;strokeColor=inherit;fontSize=16;" vertex="1" parent="wTen16TL0sHBwGDb7RQF-217">
          <mxGeometry x="90" width="180" height="30" as="geometry">
            <mxRectangle width="180" height="30" as="alternateBounds" />
          </mxGeometry>
        </mxCell>
        <mxCell id="wTen16TL0sHBwGDb7RQF-220" style="shape=tableRow;horizontal=0;startSize=0;swimlaneHead=0;swimlaneBody=0;top=0;left=0;bottom=0;right=0;collapsible=0;dropTarget=0;fillColor=none;points=[[0,0.5],[1,0.5]];portConstraint=eastwest;strokeColor=inherit;fontSize=16;" vertex="1" parent="wTen16TL0sHBwGDb7RQF-204">
          <mxGeometry y="180" width="270" height="30" as="geometry" />
        </mxCell>
        <mxCell id="wTen16TL0sHBwGDb7RQF-221" value="string" style="shape=partialRectangle;html=1;whiteSpace=wrap;connectable=0;fillColor=none;top=1;left=0;bottom=0;right=0;overflow=hidden;strokeColor=inherit;fontSize=16;" vertex="1" parent="wTen16TL0sHBwGDb7RQF-220">
          <mxGeometry width="90" height="30" as="geometry">
            <mxRectangle width="90" height="30" as="alternateBounds" />
          </mxGeometry>
        </mxCell>
        <mxCell id="wTen16TL0sHBwGDb7RQF-222" value="pass_hash" style="shape=partialRectangle;html=1;whiteSpace=wrap;connectable=0;fillColor=none;top=1;left=0;bottom=0;right=0;align=left;spacingLeft=6;overflow=hidden;strokeColor=inherit;fontSize=16;" vertex="1" parent="wTen16TL0sHBwGDb7RQF-220">
          <mxGeometry x="90" width="180" height="30" as="geometry">
            <mxRectangle width="180" height="30" as="alternateBounds" />
          </mxGeometry>
        </mxCell>
        <mxCell id="wTen16TL0sHBwGDb7RQF-223" style="shape=tableRow;horizontal=0;startSize=0;swimlaneHead=0;swimlaneBody=0;top=0;left=0;bottom=0;right=0;collapsible=0;dropTarget=0;fillColor=none;points=[[0,0.5],[1,0.5]];portConstraint=eastwest;strokeColor=inherit;fontSize=16;" vertex="1" parent="wTen16TL0sHBwGDb7RQF-204">
          <mxGeometry y="210" width="270" height="30" as="geometry" />
        </mxCell>
        <mxCell id="wTen16TL0sHBwGDb7RQF-224" value="string" style="shape=partialRectangle;html=1;whiteSpace=wrap;connectable=0;fillColor=none;top=1;left=0;bottom=0;right=0;overflow=hidden;strokeColor=inherit;fontSize=16;" vertex="1" parent="wTen16TL0sHBwGDb7RQF-223">
          <mxGeometry width="90" height="30" as="geometry">
            <mxRectangle width="90" height="30" as="alternateBounds" />
          </mxGeometry>
        </mxCell>
        <mxCell id="wTen16TL0sHBwGDb7RQF-225" value="role" style="shape=partialRectangle;html=1;whiteSpace=wrap;connectable=0;fillColor=none;top=1;left=0;bottom=0;right=0;align=left;spacingLeft=6;overflow=hidden;strokeColor=inherit;fontSize=16;" vertex="1" parent="wTen16TL0sHBwGDb7RQF-223">
          <mxGeometry x="90" width="180" height="30" as="geometry">
            <mxRectangle width="180" height="30" as="alternateBounds" />
          </mxGeometry>
        </mxCell>
        <mxCell id="wTen16TL0sHBwGDb7RQF-226" style="shape=tableRow;horizontal=0;startSize=0;swimlaneHead=0;swimlaneBody=0;top=0;left=0;bottom=0;right=0;collapsible=0;dropTarget=0;fillColor=none;points=[[0,0.5],[1,0.5]];portConstraint=eastwest;strokeColor=inherit;fontSize=16;" vertex="1" parent="wTen16TL0sHBwGDb7RQF-204">
          <mxGeometry y="240" width="270" height="30" as="geometry" />
        </mxCell>
        <mxCell id="wTen16TL0sHBwGDb7RQF-227" value="&lt;span style=&quot;text-align: left;&quot;&gt;timestamp&lt;/span&gt;" style="shape=partialRectangle;html=1;whiteSpace=wrap;connectable=0;fillColor=none;top=1;left=0;bottom=0;right=0;overflow=hidden;strokeColor=inherit;fontSize=16;" vertex="1" parent="wTen16TL0sHBwGDb7RQF-226">
          <mxGeometry width="90" height="30" as="geometry">
            <mxRectangle width="90" height="30" as="alternateBounds" />
          </mxGeometry>
        </mxCell>
        <mxCell id="wTen16TL0sHBwGDb7RQF-228" value="deleted_at" style="shape=partialRectangle;html=1;whiteSpace=wrap;connectable=0;fillColor=none;top=1;left=0;bottom=0;right=0;align=left;spacingLeft=6;overflow=hidden;strokeColor=inherit;fontSize=16;" vertex="1" parent="wTen16TL0sHBwGDb7RQF-226">
          <mxGeometry x="90" width="180" height="30" as="geometry">
            <mxRectangle width="180" height="30" as="alternateBounds" />
          </mxGeometry>
        </mxCell>
        <mxCell id="wTen16TL0sHBwGDb7RQF-229" value="AUDIT_HISTORY" style="shape=table;startSize=30;container=1;collapsible=0;childLayout=tableLayout;fixedRows=1;rowLines=0;fontStyle=0;strokeColor=default;fontSize=16;rounded=1;sketch=1;curveFitting=1;jiggle=2;shadow=0;miterlimit=4;" vertex="1" parent="1">
          <mxGeometry x="830" y="520" width="270" height="271" as="geometry" />
        </mxCell>
        <mxCell id="wTen16TL0sHBwGDb7RQF-230" value="" style="shape=tableRow;horizontal=0;startSize=0;swimlaneHead=0;swimlaneBody=0;top=0;left=0;bottom=0;right=0;collapsible=0;dropTarget=0;fillColor=none;points=[[0,0.5],[1,0.5]];portConstraint=eastwest;strokeColor=inherit;fontSize=16;" vertex="1" parent="wTen16TL0sHBwGDb7RQF-229">
          <mxGeometry y="30" width="270" height="30" as="geometry" />
        </mxCell>
        <mxCell id="wTen16TL0sHBwGDb7RQF-231" value="int" style="shape=partialRectangle;html=1;whiteSpace=wrap;connectable=0;fillColor=none;top=1;left=0;bottom=0;right=0;overflow=hidden;pointerEvents=1;strokeColor=inherit;fontSize=16;" vertex="1" parent="wTen16TL0sHBwGDb7RQF-230">
          <mxGeometry width="90" height="30" as="geometry">
            <mxRectangle width="90" height="30" as="alternateBounds" />
          </mxGeometry>
        </mxCell>
        <mxCell id="wTen16TL0sHBwGDb7RQF-232" value="id" style="shape=partialRectangle;html=1;whiteSpace=wrap;connectable=0;fillColor=#fff2cc;top=1;left=0;bottom=0;right=0;align=left;spacingLeft=6;overflow=hidden;strokeColor=#d6b656;fontSize=16;" vertex="1" parent="wTen16TL0sHBwGDb7RQF-230">
          <mxGeometry x="90" width="180" height="30" as="geometry">
            <mxRectangle width="180" height="30" as="alternateBounds" />
          </mxGeometry>
        </mxCell>
        <mxCell id="wTen16TL0sHBwGDb7RQF-233" value="" style="shape=tableRow;horizontal=0;startSize=0;swimlaneHead=0;swimlaneBody=0;top=0;left=0;bottom=0;right=0;collapsible=0;dropTarget=0;fillColor=none;points=[[0,0.5],[1,0.5]];portConstraint=eastwest;strokeColor=inherit;fontSize=16;" vertex="1" parent="wTen16TL0sHBwGDb7RQF-229">
          <mxGeometry y="60" width="270" height="30" as="geometry" />
        </mxCell>
        <mxCell id="wTen16TL0sHBwGDb7RQF-234" value="&lt;span style=&quot;text-align: left;&quot;&gt;timestamp&lt;/span&gt;" style="shape=partialRectangle;html=1;whiteSpace=wrap;connectable=0;fillColor=none;top=1;left=0;bottom=0;right=0;overflow=hidden;strokeColor=inherit;fontSize=16;verticalAlign=top;" vertex="1" parent="wTen16TL0sHBwGDb7RQF-233">
          <mxGeometry width="90" height="30" as="geometry">
            <mxRectangle width="90" height="30" as="alternateBounds" />
          </mxGeometry>
        </mxCell>
        <mxCell id="wTen16TL0sHBwGDb7RQF-235" value="changed_at" style="shape=partialRectangle;html=1;whiteSpace=wrap;connectable=0;fillColor=none;top=1;left=0;bottom=0;right=0;align=left;spacingLeft=6;overflow=hidden;strokeColor=inherit;fontSize=16;verticalAlign=top;" vertex="1" parent="wTen16TL0sHBwGDb7RQF-233">
          <mxGeometry x="90" width="180" height="30" as="geometry">
            <mxRectangle width="180" height="30" as="alternateBounds" />
          </mxGeometry>
        </mxCell>
        <mxCell id="wTen16TL0sHBwGDb7RQF-236" value="" style="shape=tableRow;horizontal=0;startSize=0;swimlaneHead=0;swimlaneBody=0;top=0;left=0;bottom=0;right=0;collapsible=0;dropTarget=0;fillColor=none;points=[[0,0.5],[1,0.5]];portConstraint=eastwest;strokeColor=inherit;fontSize=16;" vertex="1" parent="wTen16TL0sHBwGDb7RQF-229">
          <mxGeometry y="90" width="270" height="30" as="geometry" />
        </mxCell>
        <mxCell id="wTen16TL0sHBwGDb7RQF-237" value="int" style="shape=partialRectangle;html=1;whiteSpace=wrap;connectable=0;fillColor=none;top=1;left=0;bottom=0;right=0;overflow=hidden;strokeColor=inherit;fontSize=16;" vertex="1" parent="wTen16TL0sHBwGDb7RQF-236">
          <mxGeometry width="90" height="30" as="geometry">
            <mxRectangle width="90" height="30" as="alternateBounds" />
          </mxGeometry>
        </mxCell>
        <mxCell id="wTen16TL0sHBwGDb7RQF-238" value="user_id" style="shape=partialRectangle;html=1;whiteSpace=wrap;connectable=0;fillColor=#e1d5e7;top=1;left=0;bottom=0;right=0;align=left;spacingLeft=6;overflow=hidden;strokeColor=#9673a6;fontSize=16;" vertex="1" parent="wTen16TL0sHBwGDb7RQF-236">
          <mxGeometry x="90" width="180" height="30" as="geometry">
            <mxRectangle width="180" height="30" as="alternateBounds" />
          </mxGeometry>
        </mxCell>
        <mxCell id="wTen16TL0sHBwGDb7RQF-239" style="shape=tableRow;horizontal=0;startSize=0;swimlaneHead=0;swimlaneBody=0;top=0;left=0;bottom=0;right=0;collapsible=0;dropTarget=0;fillColor=none;points=[[0,0.5],[1,0.5]];portConstraint=eastwest;strokeColor=inherit;fontSize=16;" vertex="1" parent="wTen16TL0sHBwGDb7RQF-229">
          <mxGeometry y="120" width="270" height="30" as="geometry" />
        </mxCell>
        <mxCell id="wTen16TL0sHBwGDb7RQF-240" value="string" style="shape=partialRectangle;html=1;whiteSpace=wrap;connectable=0;fillColor=none;top=1;left=0;bottom=0;right=0;overflow=hidden;strokeColor=inherit;fontSize=16;" vertex="1" parent="wTen16TL0sHBwGDb7RQF-239">
          <mxGeometry width="90" height="30" as="geometry">
            <mxRectangle width="90" height="30" as="alternateBounds" />
          </mxGeometry>
        </mxCell>
        <mxCell id="wTen16TL0sHBwGDb7RQF-241" value="object_type" style="shape=partialRectangle;html=1;whiteSpace=wrap;connectable=0;fillColor=none;top=1;left=0;bottom=0;right=0;align=left;spacingLeft=6;overflow=hidden;strokeColor=inherit;fontSize=16;" vertex="1" parent="wTen16TL0sHBwGDb7RQF-239">
          <mxGeometry x="90" width="180" height="30" as="geometry">
            <mxRectangle width="180" height="30" as="alternateBounds" />
          </mxGeometry>
        </mxCell>
        <mxCell id="wTen16TL0sHBwGDb7RQF-242" style="shape=tableRow;horizontal=0;startSize=0;swimlaneHead=0;swimlaneBody=0;top=0;left=0;bottom=0;right=0;collapsible=0;dropTarget=0;fillColor=none;points=[[0,0.5],[1,0.5]];portConstraint=eastwest;strokeColor=inherit;fontSize=16;" vertex="1" parent="wTen16TL0sHBwGDb7RQF-229">
          <mxGeometry y="150" width="270" height="30" as="geometry" />
        </mxCell>
        <mxCell id="wTen16TL0sHBwGDb7RQF-243" value="int" style="shape=partialRectangle;html=1;whiteSpace=wrap;connectable=0;fillColor=none;top=1;left=0;bottom=0;right=0;overflow=hidden;strokeColor=inherit;fontSize=16;" vertex="1" parent="wTen16TL0sHBwGDb7RQF-242">
          <mxGeometry width="90" height="30" as="geometry">
            <mxRectangle width="90" height="30" as="alternateBounds" />
          </mxGeometry>
        </mxCell>
        <mxCell id="wTen16TL0sHBwGDb7RQF-244" value="object_id" style="shape=partialRectangle;html=1;whiteSpace=wrap;connectable=0;fillColor=#e1d5e7;top=1;left=0;bottom=0;right=0;align=left;spacingLeft=6;overflow=hidden;strokeColor=#9673a6;fontSize=16;" vertex="1" parent="wTen16TL0sHBwGDb7RQF-242">
          <mxGeometry x="90" width="180" height="30" as="geometry">
            <mxRectangle width="180" height="30" as="alternateBounds" />
          </mxGeometry>
        </mxCell>
        <mxCell id="wTen16TL0sHBwGDb7RQF-245" style="shape=tableRow;horizontal=0;startSize=0;swimlaneHead=0;swimlaneBody=0;top=0;left=0;bottom=0;right=0;collapsible=0;dropTarget=0;fillColor=none;points=[[0,0.5],[1,0.5]];portConstraint=eastwest;strokeColor=inherit;fontSize=16;" vertex="1" parent="wTen16TL0sHBwGDb7RQF-229">
          <mxGeometry y="180" width="270" height="30" as="geometry" />
        </mxCell>
        <mxCell id="wTen16TL0sHBwGDb7RQF-246" value="string" style="shape=partialRectangle;html=1;whiteSpace=wrap;connectable=0;fillColor=none;top=1;left=0;bottom=0;right=0;overflow=hidden;strokeColor=inherit;fontSize=16;" vertex="1" parent="wTen16TL0sHBwGDb7RQF-245">
          <mxGeometry width="90" height="30" as="geometry">
            <mxRectangle width="90" height="30" as="alternateBounds" />
          </mxGeometry>
        </mxCell>
        <mxCell id="wTen16TL0sHBwGDb7RQF-247" value="field_name" style="shape=partialRectangle;html=1;whiteSpace=wrap;connectable=0;fillColor=none;top=1;left=0;bottom=0;right=0;align=left;spacingLeft=6;overflow=hidden;strokeColor=inherit;fontSize=16;" vertex="1" parent="wTen16TL0sHBwGDb7RQF-245">
          <mxGeometry x="90" width="180" height="30" as="geometry">
            <mxRectangle width="180" height="30" as="alternateBounds" />
          </mxGeometry>
        </mxCell>
        <mxCell id="wTen16TL0sHBwGDb7RQF-248" style="shape=tableRow;horizontal=0;startSize=0;swimlaneHead=0;swimlaneBody=0;top=0;left=0;bottom=0;right=0;collapsible=0;dropTarget=0;fillColor=none;points=[[0,0.5],[1,0.5]];portConstraint=eastwest;strokeColor=inherit;fontSize=16;" vertex="1" parent="wTen16TL0sHBwGDb7RQF-229">
          <mxGeometry y="210" width="270" height="30" as="geometry" />
        </mxCell>
        <mxCell id="wTen16TL0sHBwGDb7RQF-249" value="text" style="shape=partialRectangle;html=1;whiteSpace=wrap;connectable=0;fillColor=none;top=1;left=0;bottom=0;right=0;overflow=hidden;strokeColor=inherit;fontSize=16;" vertex="1" parent="wTen16TL0sHBwGDb7RQF-248">
          <mxGeometry width="90" height="30" as="geometry">
            <mxRectangle width="90" height="30" as="alternateBounds" />
          </mxGeometry>
        </mxCell>
        <mxCell id="wTen16TL0sHBwGDb7RQF-250" value="old_value" style="shape=partialRectangle;html=1;whiteSpace=wrap;connectable=0;fillColor=none;top=1;left=0;bottom=0;right=0;align=left;spacingLeft=6;overflow=hidden;strokeColor=inherit;fontSize=16;" vertex="1" parent="wTen16TL0sHBwGDb7RQF-248">
          <mxGeometry x="90" width="180" height="30" as="geometry">
            <mxRectangle width="180" height="30" as="alternateBounds" />
          </mxGeometry>
        </mxCell>
        <mxCell id="wTen16TL0sHBwGDb7RQF-251" style="shape=tableRow;horizontal=0;startSize=0;swimlaneHead=0;swimlaneBody=0;top=0;left=0;bottom=0;right=0;collapsible=0;dropTarget=0;fillColor=none;points=[[0,0.5],[1,0.5]];portConstraint=eastwest;strokeColor=inherit;fontSize=16;" vertex="1" parent="wTen16TL0sHBwGDb7RQF-229">
          <mxGeometry y="240" width="270" height="30" as="geometry" />
        </mxCell>
        <mxCell id="wTen16TL0sHBwGDb7RQF-252" value="&lt;span style=&quot;text-align: left;&quot;&gt;text&lt;/span&gt;" style="shape=partialRectangle;html=1;whiteSpace=wrap;connectable=0;fillColor=none;top=1;left=0;bottom=0;right=0;overflow=hidden;strokeColor=inherit;fontSize=16;" vertex="1" parent="wTen16TL0sHBwGDb7RQF-251">
          <mxGeometry width="90" height="30" as="geometry">
            <mxRectangle width="90" height="30" as="alternateBounds" />
          </mxGeometry>
        </mxCell>
        <mxCell id="wTen16TL0sHBwGDb7RQF-253" value="new_value" style="shape=partialRectangle;html=1;whiteSpace=wrap;connectable=0;fillColor=none;top=1;left=0;bottom=0;right=0;align=left;spacingLeft=6;overflow=hidden;strokeColor=inherit;fontSize=16;" vertex="1" parent="wTen16TL0sHBwGDb7RQF-251">
          <mxGeometry x="90" width="180" height="30" as="geometry">
            <mxRectangle width="180" height="30" as="alternateBounds" />
          </mxGeometry>
        </mxCell>
        <mxCell id="wTen16TL0sHBwGDb7RQF-255" value="id, юзера который произвел изменение" style="text;html=1;align=center;verticalAlign=middle;whiteSpace=wrap;rounded=0;" vertex="1" parent="1">
          <mxGeometry x="1100" y="620" width="260" as="geometry" />
        </mxCell>
        <mxCell id="wTen16TL0sHBwGDb7RQF-256" value="Название сущности над которой было изменение" style="text;html=1;align=center;verticalAlign=middle;whiteSpace=wrap;rounded=0;" vertex="1" parent="1">
          <mxGeometry x="1110" y="655.5" width="290" as="geometry" />
        </mxCell>
        <mxCell id="wTen16TL0sHBwGDb7RQF-257" value="Название изменённого поля сущности" style="text;html=1;align=center;verticalAlign=middle;whiteSpace=wrap;rounded=0;" vertex="1" parent="1">
          <mxGeometry x="1080" y="710" width="290" as="geometry" />
        </mxCell>
        <mxCell id="wTen16TL0sHBwGDb7RQF-258" value="admin, manager" style="text;html=1;align=center;verticalAlign=middle;whiteSpace=wrap;rounded=0;" vertex="1" parent="1">
          <mxGeometry x="1040" y="330" width="260" as="geometry" />
        </mxCell>
        <mxCell id="wTen16TL0sHBwGDb7RQF-259" value="Вложенность для отделов в отделах" style="text;html=1;align=center;verticalAlign=middle;whiteSpace=wrap;rounded=0;" vertex="1" parent="1">
          <mxGeometry x="370" y="420" width="130" as="geometry" />
        </mxCell>
        <mxCell id="wTen16TL0sHBwGDb7RQF-260" style="edgeStyle=orthogonalEdgeStyle;rounded=0;orthogonalLoop=1;jettySize=auto;html=1;entryX=0;entryY=0.5;entryDx=0;entryDy=0;startArrow=ERmandOne;startFill=0;strokeWidth=2;endArrow=ERzeroToMany;endFill=0;" edge="1" parent="1" source="wTen16TL0sHBwGDb7RQF-205" target="wTen16TL0sHBwGDb7RQF-236">
          <mxGeometry relative="1" as="geometry" />
        </mxCell>
        <mxCell id="wTen16TL0sHBwGDb7RQF-261" value="Таблица для сканов паспорта" style="text;html=1;align=center;verticalAlign=middle;whiteSpace=wrap;rounded=0;" vertex="1" parent="1">
          <mxGeometry x="460" y="840" width="180" as="geometry" />
        </mxCell>
        <mxCell id="wTen16TL0sHBwGDb7RQF-262" value="Таблица аудит-логов" style="text;html=1;align=center;verticalAlign=middle;whiteSpace=wrap;rounded=0;" vertex="1" parent="1">
          <mxGeometry x="870" y="500" width="180" as="geometry" />
        </mxCell>
        <mxCell id="wTen16TL0sHBwGDb7RQF-263" value="Все операции над работником" style="text;html=1;align=center;verticalAlign=middle;whiteSpace=wrap;rounded=0;" vertex="1" parent="1">
          <mxGeometry x="70" y="600" width="230" as="geometry" />
        </mxCell>
      </root>
    </mxGraphModel>
  </diagram>
</mxfile>
